<?xml version="1.0" encoding="UTF-8"?>
<svg id="Layer_1" data-name="Layer 1" xmlns="http://www.w3.org/2000/svg" viewBox="0 0 1920 1080">
  <defs>
    <style>
      .cls-1 {
        fill: #fff;
      }

      .cls-1, .cls-2 {
        stroke: #000;
        stroke-miterlimit: 10;
        stroke-width: 5px;
      }

      .cls-2 {
        fill: none;
      }
    </style>
  </defs>
  <path class="cls-1" d="M1131.4,586.14c47.93-5.29,219.85-103.79,144.98-196.96-24.25-30.17-62.41-57.79-99.86-49.81-157.39,33.55-45.13,246.77-45.13,246.77l-33.02,28.25,41.2,20.75-8.18-49Z"/>
  <path class="cls-1" d="M948.73,492.36c-43.27-21.19-171.31-172-69.08-234.29,33.11-20.17,78.43-33.23,110.92-13.05,136.56,84.81-41.84,247.34-41.84,247.34l21.4,37.74-45.83,5.57,24.43-43.31Z"/>
  <path class="cls-1" d="M776.79,591.48c27.63-39.34,66.72-232.92-53.02-238.4-38.78-1.78-84.81,8.55-103.49,41.82-78.53,139.85,156.51,196.58,156.51,196.58l-.46,43.33,42.85-17.13-42.39-26.21Z"/>
  <line class="cls-2" x1="972.08" y1="885.59" x2="940.74" y2="535.94"/>
  <line class="cls-2" x1="791.23" y1="629.29" x2="972.08" y2="885.59"/>
  <path class="cls-1" d="M1108.85,624.76l-136.34,261.25s11.64,53.58-16.1,50.88"/>
  <path class="cls-1" d="M1013.99,924.02s-29.22,15.71-41.48-43.94"/>
</svg>