<?xml version="1.0" encoding="UTF-8"?>
<svg id="Layer_1" data-name="Layer 1" xmlns="http://www.w3.org/2000/svg" viewBox="0 0 650 655">
  <defs>
    <style>
      .cls-1, .cls-2 {
        fill: #fff;
      }

      .cls-2, .cls-3, .cls-4 {
        stroke: #000;
        stroke-miterlimit: 10;
      }

      .cls-2, .cls-4 {
        stroke-width: 4px;
      }

      .cls-3 {
        stroke-width: 5px;
      }

      .cls-3, .cls-4 {
        fill: none;
      }
    </style>
  </defs>
  <g>
    <path class="cls-1" d="M327.67,595.86c-78.93,0-153.14-30.74-208.95-86.55S32.17,379.29,32.17,300.36,62.91,147.22,118.72,91.41,248.74,4.86,327.67,4.86s153.14,30.74,208.95,86.55c55.81,55.81,86.55,130.02,86.55,208.95s-30.74,153.14-86.55,208.95c-55.81,55.81-130.02,86.55-208.95,86.55Z"/>
    <path d="M327.67,8.36c39.42,0,77.66,7.72,113.66,22.94,34.77,14.71,66,35.76,92.82,62.58,26.82,26.82,47.87,58.05,62.58,92.82,15.22,35.99,22.94,74.23,22.94,113.66s-7.72,77.66-22.94,113.66c-14.71,34.77-35.76,66-62.58,92.82-26.82,26.82-58.05,47.87-92.82,62.58-35.99,15.22-74.23,22.94-113.66,22.94s-77.66-7.72-113.66-22.94c-34.77-14.71-66-35.76-92.82-62.58-26.82-26.82-47.87-58.05-62.58-92.82-15.22-35.99-22.94-74.23-22.94-113.66s7.72-77.66,22.94-113.66c14.71-34.77,35.76-66,62.58-92.82,26.82-26.82,58.05-47.87,92.82-62.58,35.99-15.22,74.23-22.94,113.66-22.94m0-7C162.54,1.36,28.67,135.23,28.67,300.36s133.87,299,299,299,299-133.87,299-299S492.8,1.36,327.67,1.36h0Z"/>
  </g>
  <g>
    <path class="cls-1" d="M327.27,546.96c-65.98,0-128.02-25.7-174.68-72.35-46.66-46.66-72.35-108.69-72.35-174.68s25.7-128.02,72.35-174.68c46.66-46.66,108.69-72.35,174.68-72.35s128.02,25.7,174.68,72.35c46.66,46.66,72.35,108.69,72.35,174.68s-25.7,128.02-72.35,174.68c-46.66,46.66-108.69,72.35-174.68,72.35Z"/>
    <path d="M327.27,56.4c32.88,0,64.77,6.44,94.79,19.13,29,12.27,55.04,29.83,77.41,52.19,22.37,22.37,39.93,48.41,52.19,77.41,12.7,30.02,19.13,61.91,19.13,94.79s-6.44,64.77-19.13,94.79c-12.27,29-29.83,55.04-52.19,77.41-22.37,22.37-48.41,39.93-77.41,52.19-30.02,12.7-61.91,19.13-94.79,19.13s-64.77-6.44-94.79-19.13c-29-12.27-55.04-29.83-77.41-52.19-22.37-22.37-39.93-48.41-52.19-77.41-12.7-30.02-19.13-61.91-19.13-94.79s6.44-64.77,19.13-94.79c12.27-29,29.83-55.04,52.19-77.41,22.37-22.37,48.41-39.93,77.41-52.19,30.02-12.7,61.91-19.13,94.79-19.13m0-7c-138.36,0-250.53,112.17-250.53,250.53s112.17,250.53,250.53,250.53,250.53-112.17,250.53-250.53S465.63,49.4,327.27,49.4h0Z"/>
  </g>
  <path d="M327.44,56.34c26.53,0,52.77,4.34,77.98,12.91,24.82,8.43,48.02,20.74,68.94,36.57,21.13,15.99,39.38,35.16,54.23,56.96,15.37,22.56,26.77,47.49,33.91,74.11,8.51,31.76,10.55,64.23,6.05,96.51-4.34,31.18-14.56,60.89-30.38,88.28-15.82,27.39-36.43,51.1-61.26,70.45-25.71,20.03-54.85,34.51-86.61,43.02-20.7,5.55-41.96,8.36-63.19,8.36-26.53,0-52.77-4.34-77.98-12.91-24.82-8.43-48.02-20.74-68.94-36.57-21.13-15.99-39.38-35.16-54.24-56.96-15.37-22.56-26.77-47.5-33.91-74.12-8.51-31.76-10.55-64.23-6.05-96.51,4.34-31.18,14.56-60.89,30.38-88.28,15.82-27.39,36.43-51.1,61.26-70.45,25.71-20.03,54.85-34.51,86.61-43.02,20.7-5.55,41.96-8.36,63.19-8.36h0m-.01-7c-21.46,0-43.28,2.78-65,8.6C128.78,93.75,49.47,231.12,85.28,364.77c29.99,111.93,131.21,185.75,241.83,185.75,21.46,0,43.28-2.78,65-8.6,133.65-35.81,212.96-173.18,177.15-306.83-29.99-111.93-131.21-185.75-241.83-185.75h0Z"/>
  <line class="cls-2" x1="141.77" y1="65.66" x2="513.58" y2="534.22"/>
  <line class="cls-2" x1="49.48" y1="189.8" x2="605.76" y2="409.68"/>
  <line class="cls-2" x1="31.64" y1="343.45" x2="623.33" y2="255.73"/>
  <line class="cls-2" x1="93" y1="485.43" x2="561.56" y2="113.62"/>
  <path d="M327.62,204.34c43.01,0,80.83,29.05,91.97,70.65,6.59,24.58,3.21,50.26-9.52,72.3-12.73,22.04-33.27,37.81-57.86,44.4-8.1,2.17-16.42,3.27-24.73,3.27-43.01,0-80.83-29.05-91.98-70.65-13.6-50.75,16.63-103.1,67.38-116.7,8.1-2.17,16.42-3.27,24.73-3.27h0m0-6c-8.68,0-17.5,1.12-26.28,3.48-54.03,14.48-86.1,70.02-71.62,124.05,12.13,45.25,53.05,75.1,97.77,75.1,8.68,0,17.5-1.12,26.28-3.48,54.03-14.48,86.1-70.02,71.62-124.05-12.13-45.25-53.05-75.1-97.77-75.1h0Z"/>
  <polyline class="cls-4" points="500.67 65.66 364.92 205.5 361.75 3.1"/>
  <polyline class="cls-4" points="93 125.77 264.51 220.35 208.72 25.63 446.59 574.45 390.46 379.06 567.87 478.02"/>
  <polyline class="cls-4" points="601.8 180.61 427.74 284.73 624.68 333.86 30.45 265.45"/>
  <polyline class="cls-4" points="624.68 333.86 418.54 335.02 567.87 478.02 87.45 121.65"/>
  <line class="cls-4" x1="313.58" y1="205.5" x2="208.72" y2="25.63"/>
  <polyline class="cls-4" points="52.97 418.48 251.88 359.36 149 539.75 505.36 59.33 405.89 239.43 601.8 180.61 52.97 418.48 227.35 314.43 30.45 265.45"/>
  <line class="cls-4" x1="283.75" y1="4.29" x2="371.47" y2="595.98"/>
  <line class="cls-4" x1="217.52" y1="578.42" x2="437.4" y2="22.14"/>
  <polyline class="cls-4" points="293.34 597.33 361.75 3.1 312.69 199.45"/>
  <polyline class="cls-4" points="293.34 597.33 293.31 591.68 292.42 388.92 149 539.75"/>
  <polyline class="cls-4" points="446.59 574.45 341.94 396.76 293.31 591.68"/>
  <polyline class="cls-4" points="93 125.77 233.34 262.47 37.12 265.99"/>
  <g>
    <rect x="345.18" y="62.3" width="29.92" height="8.09"/>
    <path d="M367.83,43.7v12.13h-14.56v-12.13h-18.58c.46,12.76,11.7,23.01,25.45,23.01s24.99-10.25,25.45-23.01h-17.77Z"/>
    <g>
      <path d="M360.14,5.76c12.21,0,22.18,5.33,22.58,11.97h-45.17c.41-6.64,10.38-11.97,22.58-11.97Z"/>
      <path d="M334.69,17.74c.41-7.57,11.66-13.66,25.45-13.66s25.05,6.09,25.45,13.66h.02v1.26h-50.95v-1.26h.02Zm25.45-11.97c-12.21,0-22.18,5.33-22.58,11.97h45.17c-.41-6.64-10.38-11.97-22.58-11.97Z"/>
    </g>
    <line class="cls-3" x1="345.18" y1="17.02" x2="345.18" y2="46.93"/>
    <line class="cls-3" x1="375.29" y1="17.02" x2="375.29" y2="47.2"/>
  </g>
  <rect x="489.19" y="117.98" width="29.92" height="8.09"/>
  <path d="M511.83,99.38v12.13h-14.56v-12.13h-18.58c.46,12.76,11.7,23.01,25.45,23.01s24.99-10.25,25.45-23.01h-17.77Z"/>
  <g>
    <path d="M504.15,61.44c12.21,0,22.18,5.33,22.58,11.97h-45.17c.41-6.64,10.38-11.97,22.58-11.97Z"/>
    <path d="M478.69,73.41c.41-7.57,11.66-13.66,25.45-13.66s25.05,6.09,25.45,13.66h.02v1.26h-50.95v-1.26h.02Zm25.45-11.97c-12.21,0-22.18,5.33-22.58,11.97h45.17c-.41-6.64-10.38-11.97-22.58-11.97Z"/>
  </g>
  <line class="cls-3" x1="489.19" y1="72.69" x2="489.19" y2="102.61"/>
  <line class="cls-3" x1="519.3" y1="72.69" x2="519.3" y2="102.88"/>
  <rect x="583" y="238.5" width="29.92" height="8.09"/>
  <path d="M605.64,219.9v12.13h-14.56v-12.13h-18.58c.46,12.76,11.7,23.01,25.45,23.01s24.99-10.25,25.45-23.01h-17.77Z"/>
  <g>
    <path d="M597.96,181.96c12.21,0,22.18,5.33,22.58,11.97h-45.17c.41-6.64,10.38-11.97,22.58-11.97Z"/>
    <path d="M572.51,193.93c.41-7.57,11.66-13.66,25.45-13.66s25.05,6.09,25.45,13.66h.02v1.26h-50.95v-1.26h.02Zm25.45-11.97c-12.21,0-22.18,5.33-22.58,11.97h45.17c-.41-6.64-10.38-11.97-22.58-11.97Z"/>
  </g>
  <line class="cls-3" x1="583" y1="193.21" x2="583" y2="223.13"/>
  <line class="cls-3" x1="613.11" y1="193.21" x2="613.11" y2="223.4"/>
  <rect x="606.01" y="388.61" width="29.92" height="8.09"/>
  <path d="M628.65,370.01v12.13h-14.56v-12.13h-18.58c.46,12.76,11.7,23.01,25.45,23.01s24.99-10.25,25.45-23.01h-17.77Z"/>
  <g>
    <path d="M620.97,332.07c12.21,0,22.18,5.33,22.58,11.97h-45.17c.41-6.64,10.38-11.97,22.58-11.97Z"/>
    <path d="M595.52,344.05c.41-7.57,11.66-13.66,25.45-13.66s25.05,6.09,25.45,13.66h.02v1.26h-50.95v-1.26h.02Zm25.45-11.97c-12.21,0-22.18,5.33-22.58,11.97h45.17c-.41-6.64-10.38-11.97-22.58-11.97Z"/>
  </g>
  <line class="cls-3" x1="606.01" y1="343.33" x2="606.01" y2="373.24"/>
  <line class="cls-3" x1="636.12" y1="343.33" x2="636.12" y2="373.51"/>
  <g>
    <rect x="547.57" y="521.83" width="29.92" height="8.09"/>
    <path d="M570.21,503.23v12.13h-14.56v-12.13h-18.58c.46,12.76,11.7,23.01,25.45,23.01s24.99-10.25,25.45-23.01h-17.77Z"/>
    <g>
      <path d="M562.53,465.28c12.21,0,22.18,5.33,22.58,11.97h-45.17c.41-6.64,10.38-11.97,22.58-11.97Z"/>
      <path d="M537.07,477.26c.41-7.57,11.66-13.66,25.45-13.66s25.05,6.09,25.45,13.66h.02v1.26h-50.95v-1.26h.02Zm25.45-11.97c-12.21,0-22.18,5.33-22.58,11.97h45.17c-.41-6.64-10.38-11.97-22.58-11.97Z"/>
    </g>
    <line class="cls-3" x1="547.57" y1="476.54" x2="547.57" y2="506.45"/>
    <line class="cls-3" x1="577.68" y1="476.54" x2="577.68" y2="506.73"/>
  </g>
  <rect x="429.54" y="618.75" width="29.92" height="8.09"/>
  <path d="M452.18,600.15v12.13h-14.56v-12.13h-18.58c.46,12.76,11.7,23.01,25.45,23.01s24.99-10.25,25.45-23.01h-17.77Z"/>
  <g>
    <path d="M444.5,562.21c12.21,0,22.18,5.33,22.58,11.97h-45.17c.41-6.64,10.38-11.97,22.58-11.97Z"/>
    <path d="M419.04,574.18c.41-7.57,11.66-13.66,25.45-13.66s25.05,6.09,25.45,13.66h.02v1.26h-50.95v-1.26h.02Zm25.45-11.97c-12.21,0-22.18,5.33-22.58,11.97h45.17c-.41-6.64-10.38-11.97-22.58-11.97Z"/>
  </g>
  <line class="cls-3" x1="429.54" y1="573.46" x2="429.54" y2="603.38"/>
  <line class="cls-3" x1="459.65" y1="573.46" x2="459.65" y2="603.65"/>
  <g>
    <rect x="276.1" y="641.58" width="29.92" height="8.09"/>
    <path d="M298.75,622.98v12.13h-14.56v-12.13h-18.58c.46,12.76,11.7,23.01,25.45,23.01s24.99-10.25,25.45-23.01h-17.77Z"/>
    <g>
      <path d="M291.06,585.04c12.21,0,22.18,5.33,22.58,11.97h-45.17c.41-6.64,10.38-11.97,22.58-11.97Z"/>
      <path d="M265.61,597.01c.41-7.57,11.66-13.66,25.45-13.66s25.05,6.09,25.45,13.66h.02v1.26h-50.95v-1.26h.02Zm25.45-11.97c-12.21,0-22.18,5.33-22.58,11.97h45.17c-.41-6.64-10.38-11.97-22.58-11.97Z"/>
    </g>
    <line class="cls-3" x1="276.1" y1="596.29" x2="276.1" y2="626.21"/>
    <line class="cls-3" x1="306.21" y1="596.29" x2="306.21" y2="626.48"/>
  </g>
  <rect x="136.07" y="585.46" width="29.92" height="8.09"/>
  <path d="M158.71,566.86v12.13h-14.56v-12.13h-18.58c.46,12.76,11.7,23.01,25.45,23.01s24.99-10.25,25.45-23.01h-17.77Z"/>
  <g>
    <path d="M151.03,528.92c12.21,0,22.18,5.33,22.58,11.97h-45.17c.41-6.64,10.38-11.97,22.58-11.97Z"/>
    <path d="M125.57,540.9c.41-7.57,11.66-13.66,25.45-13.66s25.05,6.09,25.45,13.66h.02v1.26h-50.95v-1.26h.02Zm25.45-11.97c-12.21,0-22.18,5.33-22.58,11.97h45.17c-.41-6.64-10.38-11.97-22.58-11.97Z"/>
  </g>
  <line class="cls-3" x1="136.07" y1="540.18" x2="136.07" y2="570.09"/>
  <line class="cls-3" x1="166.18" y1="540.18" x2="166.18" y2="570.36"/>
  <rect x="40.07" y="467.46" width="29.92" height="8.09"/>
  <path d="M62.71,448.86v12.13h-14.56v-12.13H29.58c.46,12.76,11.7,23.01,25.45,23.01s24.99-10.25,25.45-23.01h-17.77Z"/>
  <g>
    <path d="M55.03,410.92c12.21,0,22.18,5.33,22.58,11.97H32.45c.41-6.64,10.38-11.97,22.58-11.97Z"/>
    <path d="M29.57,422.9c.41-7.57,11.66-13.66,25.45-13.66s25.05,6.09,25.45,13.66h.02v1.26H29.56v-1.26h.02Zm25.45-11.97c-12.21,0-22.18,5.33-22.58,11.97h45.17c-.41-6.64-10.38-11.97-22.58-11.97Z"/>
  </g>
  <line class="cls-3" x1="40.07" y1="422.18" x2="40.07" y2="452.09"/>
  <line class="cls-3" x1="70.18" y1="422.18" x2="70.18" y2="452.36"/>
  <rect x="15.69" y="319.15" width="29.92" height="8.09"/>
  <path d="M38.33,300.55v12.13h-14.56v-12.13H5.19c.46,12.76,11.7,23.01,25.45,23.01s24.99-10.25,25.45-23.01h-17.77Z"/>
  <g>
    <path d="M30.65,262.61c12.21,0,22.18,5.33,22.58,11.97H8.06c.41-6.64,10.38-11.97,22.58-11.97Z"/>
    <path d="M5.19,274.58c.41-7.57,11.66-13.66,25.45-13.66s25.05,6.09,25.45,13.66h.02v1.26H5.17v-1.26h.02Zm25.45-11.97c-12.21,0-22.18,5.33-22.58,11.97H53.23c-.41-6.64-10.38-11.97-22.58-11.97Z"/>
  </g>
  <line class="cls-3" x1="15.69" y1="273.86" x2="15.69" y2="303.78"/>
  <line class="cls-3" x1="45.8" y1="273.86" x2="45.8" y2="304.05"/>
  <rect x="71.36" y="174.35" width="29.92" height="8.09"/>
  <path d="M94,155.75v12.13h-14.56v-12.13h-18.58c.46,12.76,11.7,23.01,25.45,23.01s24.99-10.25,25.45-23.01h-17.77Z"/>
  <g>
    <path d="M86.32,117.81c12.21,0,22.18,5.33,22.58,11.97H63.73c.41-6.64,10.38-11.97,22.58-11.97Z"/>
    <path d="M60.86,129.78c.41-7.57,11.66-13.66,25.45-13.66s25.05,6.09,25.45,13.66h.02v1.26H60.84v-1.26h.02Zm25.45-11.97c-12.21,0-22.18,5.33-22.58,11.97h45.17c-.41-6.64-10.38-11.97-22.58-11.97Z"/>
  </g>
  <line class="cls-3" x1="71.36" y1="129.06" x2="71.36" y2="158.98"/>
  <line class="cls-3" x1="101.47" y1="129.06" x2="101.47" y2="159.25"/>
  <rect x="195.53" y="79.25" width="29.92" height="8.09"/>
  <path d="M218.18,60.65v12.13h-14.56v-12.13h-18.58c.46,12.76,11.7,23.01,25.45,23.01s24.99-10.25,25.45-23.01h-17.77Z"/>
  <g>
    <path d="M210.49,22.71c12.21,0,22.18,5.33,22.58,11.97h-45.17c.41-6.64,10.38-11.97,22.58-11.97Z"/>
    <path d="M185.04,34.68c.41-7.57,11.66-13.66,25.45-13.66s25.05,6.09,25.45,13.66h.02v1.26h-50.95v-1.26h.02Zm25.45-11.97c-12.21,0-22.18,5.33-22.58,11.97h45.17c-.41-6.64-10.38-11.97-22.58-11.97Z"/>
  </g>
  <line class="cls-3" x1="195.53" y1="33.96" x2="195.53" y2="63.88"/>
  <line class="cls-3" x1="225.65" y1="33.96" x2="225.65" y2="64.15"/>
</svg>