<?xml version="1.0" encoding="UTF-8"?>
<svg id="Layer_1" data-name="Layer 1" xmlns="http://www.w3.org/2000/svg" viewBox="0 0 1920 1080">
  <defs>
    <style>
      .cls-1, .cls-2 {
        fill: #fff;
      }

      .cls-2, .cls-3, .cls-4, .cls-5, .cls-6, .cls-7 {
        stroke: #000;
        stroke-miterlimit: 10;
      }

      .cls-2, .cls-5 {
        stroke-width: 4px;
      }

      .cls-3 {
        stroke-width: 5px;
      }

      .cls-3, .cls-4, .cls-5, .cls-6 {
        fill: none;
      }

      .cls-4 {
        stroke-width: 10px;
      }

      .cls-6, .cls-7 {
        stroke-width: 8px;
      }
    </style>
  </defs>
  <g>
    <g>
      <path class="cls-1" d="M1432.79,839.9c-78.93,0-153.14-30.74-208.95-86.55s-86.55-130.02-86.55-208.95,30.74-153.14,86.55-208.95c55.81-55.81,130.02-86.55,208.95-86.55s153.14,30.74,208.95,86.55c55.81,55.81,86.55,130.02,86.55,208.95s-30.74,153.14-86.55,208.95c-55.81,55.81-130.02,86.55-208.95,86.55Z"/>
      <path d="M1432.79,252.4c39.42,0,77.66,7.72,113.66,22.94,34.77,14.71,66,35.76,92.82,62.58,26.82,26.82,47.87,58.05,62.58,92.82,15.22,35.99,22.94,74.23,22.94,113.66s-7.72,77.66-22.94,113.66c-14.71,34.77-35.76,66-62.58,92.82-26.82,26.82-58.05,47.87-92.82,62.58-35.99,15.22-74.23,22.94-113.66,22.94s-77.66-7.72-113.66-22.94c-34.77-14.71-66-35.76-92.82-62.58-26.82-26.82-47.87-58.05-62.58-92.82-15.22-35.99-22.94-74.23-22.94-113.66s7.72-77.66,22.94-113.66c14.71-34.77,35.76-66,62.58-92.82,26.82-26.82,58.05-47.87,92.82-62.58,35.99-15.22,74.23-22.94,113.66-22.94m0-7c-165.13,0-299,133.87-299,299s133.87,299,299,299,299-133.87,299-299-133.87-299-299-299h0Z"/>
    </g>
    <g>
      <path class="cls-1" d="M1432.39,790.99c-65.98,0-128.02-25.7-174.68-72.35s-72.35-108.69-72.35-174.68,25.7-128.02,72.35-174.68,108.69-72.35,174.68-72.35,128.02,25.7,174.68,72.35c46.66,46.66,72.35,108.69,72.35,174.68s-25.7,128.02-72.35,174.68c-46.66,46.66-108.69,72.35-174.68,72.35Z"/>
      <path d="M1432.39,300.44c32.88,0,64.77,6.44,94.79,19.13,29,12.27,55.04,29.83,77.41,52.19,22.37,22.37,39.93,48.41,52.19,77.41,12.7,30.02,19.13,61.91,19.13,94.79s-6.44,64.77-19.13,94.79c-12.27,29-29.83,55.04-52.19,77.41-22.37,22.37-48.41,39.93-77.41,52.19-30.02,12.7-61.91,19.13-94.79,19.13s-64.77-6.44-94.79-19.13c-29-12.27-55.04-29.83-77.41-52.19-22.37-22.37-39.93-48.41-52.19-77.41-12.7-30.02-19.13-61.91-19.13-94.79s6.44-64.77,19.13-94.79c12.27-29,29.83-55.04,52.19-77.41,22.37-22.37,48.41-39.93,77.41-52.19,30.02-12.7,61.91-19.13,94.79-19.13m0-7c-138.36,0-250.53,112.17-250.53,250.53s112.17,250.53,250.53,250.53,250.53-112.17,250.53-250.53-112.17-250.53-250.53-250.53h0Z"/>
    </g>
    <path d="M1432.56,300.38c26.53,0,52.77,4.34,77.98,12.91,24.82,8.43,48.02,20.74,68.94,36.57,21.13,15.99,39.38,35.16,54.23,56.96,15.37,22.56,26.77,47.49,33.91,74.11,8.51,31.76,10.55,64.23,6.05,96.51-4.34,31.18-14.56,60.89-30.38,88.28-15.82,27.39-36.43,51.1-61.26,70.45-25.71,20.03-54.85,34.51-86.61,43.02-20.7,5.55-41.96,8.36-63.19,8.36-26.53,0-52.77-4.34-77.98-12.91-24.82-8.43-48.02-20.74-68.94-36.57-21.13-15.99-39.38-35.16-54.24-56.96-15.37-22.56-26.77-47.5-33.91-74.12-8.51-31.76-10.55-64.23-6.05-96.51,4.34-31.18,14.56-60.89,30.38-88.28,15.82-27.39,36.43-51.1,61.26-70.45,25.71-20.03,54.85-34.51,86.61-43.02,20.7-5.55,41.96-8.36,63.19-8.36h0m-.01-7c-21.46,0-43.28,2.78-65,8.6-133.65,35.81-212.96,173.18-177.15,306.83,29.99,111.93,131.21,185.75,241.83,185.75,21.46,0,43.28-2.78,65-8.6,133.65-35.81,212.96-173.18,177.15-306.83-29.99-111.93-131.21-185.75-241.83-185.75h0Z"/>
    <line class="cls-2" x1="1246.88" y1="309.7" x2="1618.69" y2="778.26"/>
    <line class="cls-2" x1="1154.6" y1="433.84" x2="1710.88" y2="653.72"/>
    <line class="cls-2" x1="1136.75" y1="587.48" x2="1728.44" y2="499.77"/>
    <line class="cls-2" x1="1198.12" y1="729.47" x2="1666.68" y2="357.66"/>
    <path d="M1432.74,448.37c43.01,0,80.82,29.05,91.97,70.65,6.59,24.58,3.21,50.26-9.52,72.3-12.73,22.04-33.27,37.81-57.86,44.4-8.1,2.17-16.42,3.27-24.73,3.27-43.01,0-80.83-29.05-91.98-70.65-6.59-24.58-3.21-50.26,9.52-72.3,12.73-22.04,33.27-37.81,57.86-44.4,8.1-2.17,16.42-3.27,24.73-3.27h0m0-6c-8.68,0-17.5,1.12-26.28,3.48-54.03,14.48-86.1,70.02-71.62,124.05,12.13,45.25,53.05,75.1,97.77,75.1,8.68,0,17.5-1.12,26.28-3.48,54.03-14.48,86.1-70.02,71.62-124.05-12.13-45.25-53.05-75.1-97.77-75.1h0Z"/>
    <polyline class="cls-5" points="1605.79 309.7 1470.04 449.54 1466.87 247.14"/>
    <polyline class="cls-5" points="1198.12 369.81 1369.63 464.38 1313.84 269.67 1551.71 818.49 1495.57 623.1 1672.98 722.05"/>
    <polyline class="cls-5" points="1706.92 424.65 1532.86 528.76 1729.8 577.9 1135.56 509.49"/>
    <polyline class="cls-5" points="1729.8 577.9 1523.65 579.05 1672.98 722.05 1192.57 365.69"/>
    <line class="cls-5" x1="1418.7" y1="449.54" x2="1313.84" y2="269.67"/>
    <polyline class="cls-5" points="1158.09 662.52 1357 603.4 1254.12 783.78 1610.48 303.37 1511 483.47 1706.92 424.65 1158.09 662.52 1332.47 558.47 1135.56 509.49"/>
    <line class="cls-5" x1="1388.87" y1="248.33" x2="1476.59" y2="840.02"/>
    <line class="cls-5" x1="1322.64" y1="822.45" x2="1542.52" y2="266.18"/>
    <polyline class="cls-5" points="1398.46 841.37 1466.87 247.14 1417.8 443.49"/>
    <polyline class="cls-5" points="1398.46 841.37 1398.43 835.72 1397.54 632.96 1254.12 783.78"/>
    <polyline class="cls-5" points="1551.71 818.49 1447.05 640.8 1398.43 835.72"/>
    <polyline class="cls-5" points="1198.12 369.81 1338.46 506.51 1142.24 510.03"/>
    <g>
      <rect x="1450.3" y="306.34" width="29.92" height="8.09"/>
      <path d="M1472.94,287.74v12.13h-14.56v-12.13h-18.58c.46,12.76,11.7,23.01,25.45,23.01s24.99-10.25,25.45-23.01h-17.77Z"/>
      <g>
        <path d="M1465.26,249.8c12.21,0,22.18,5.33,22.58,11.97h-45.17c.41-6.64,10.38-11.97,22.58-11.97Z"/>
        <path d="M1439.81,261.77c.41-7.57,11.66-13.66,25.45-13.66s25.05,6.09,25.45,13.66h.02v1.26h-50.95v-1.26h.02Zm25.45-11.97c-12.21,0-22.18,5.33-22.58,11.97h45.17c-.41-6.64-10.38-11.97-22.58-11.97Z"/>
      </g>
      <line class="cls-3" x1="1450.3" y1="261.05" x2="1450.3" y2="290.97"/>
      <line class="cls-3" x1="1480.41" y1="261.05" x2="1480.41" y2="291.24"/>
    </g>
    <rect x="1594.3" y="362.02" width="29.92" height="8.09"/>
    <path d="M1616.95,343.42v12.13h-14.56v-12.13h-18.58c.46,12.76,11.7,23.01,25.45,23.01s24.99-10.25,25.45-23.01h-17.77Z"/>
    <g>
      <path d="M1609.26,305.47c12.21,0,22.18,5.33,22.58,11.97h-45.17c.41-6.64,10.38-11.97,22.58-11.97Z"/>
      <path d="M1583.81,317.45c.41-7.57,11.66-13.66,25.45-13.66s25.05,6.09,25.45,13.66h.02v1.26h-50.95v-1.26h.02Zm25.45-11.97c-12.21,0-22.18,5.33-22.58,11.97h45.17c-.41-6.64-10.38-11.97-22.58-11.97Z"/>
    </g>
    <line class="cls-3" x1="1594.3" y1="316.73" x2="1594.3" y2="346.64"/>
    <line class="cls-3" x1="1624.41" y1="316.73" x2="1624.41" y2="346.91"/>
    <rect x="1688.12" y="482.54" width="29.92" height="8.09"/>
    <path d="M1710.76,463.94v12.13h-14.56v-12.13h-18.58c.46,12.76,11.7,23.01,25.45,23.01s24.99-10.25,25.45-23.01h-17.77Z"/>
    <g>
      <path d="M1703.08,425.99c12.21,0,22.18,5.33,22.58,11.97h-45.17c.41-6.64,10.38-11.97,22.58-11.97Z"/>
      <path d="M1677.62,437.97c.41-7.57,11.66-13.66,25.45-13.66s25.05,6.09,25.45,13.66h.02v1.26h-50.95v-1.26h.02Zm25.45-11.97c-12.21,0-22.18,5.33-22.58,11.97h45.17c-.41-6.64-10.38-11.97-22.58-11.97Z"/>
    </g>
    <line class="cls-3" x1="1688.12" y1="437.25" x2="1688.12" y2="467.16"/>
    <line class="cls-3" x1="1718.23" y1="437.25" x2="1718.23" y2="467.44"/>
    <rect x="1711.13" y="632.65" width="29.92" height="8.09"/>
    <path d="M1733.77,614.05v12.13h-14.56v-12.13h-18.58c.46,12.76,11.7,23.01,25.45,23.01s24.99-10.25,25.45-23.01h-17.77Z"/>
    <g>
      <path d="M1726.09,576.11c12.21,0,22.18,5.33,22.58,11.97h-45.17c.41-6.64,10.38-11.97,22.58-11.97Z"/>
      <path d="M1700.63,588.08c.41-7.57,11.66-13.66,25.45-13.66s25.05,6.09,25.45,13.66h.02v1.26h-50.95v-1.26h.02Zm25.45-11.97c-12.21,0-22.18,5.33-22.58,11.97h45.17c-.41-6.64-10.38-11.97-22.58-11.97Z"/>
    </g>
    <line class="cls-3" x1="1711.13" y1="587.37" x2="1711.13" y2="617.28"/>
    <line class="cls-3" x1="1741.24" y1="587.37" x2="1741.24" y2="617.55"/>
    <g>
      <rect x="1652.69" y="765.86" width="29.92" height="8.09"/>
      <path d="M1675.33,747.26v12.13h-14.56v-12.13h-18.58c.46,12.76,11.7,23.01,25.45,23.01s24.99-10.25,25.45-23.01h-17.77Z"/>
      <g>
        <path d="M1667.65,709.32c12.21,0,22.18,5.33,22.58,11.97h-45.17c.41-6.64,10.38-11.97,22.58-11.97Z"/>
        <path d="M1642.19,721.3c.41-7.57,11.66-13.66,25.45-13.66s25.05,6.09,25.45,13.66h.02v1.26h-50.95v-1.26h.02Zm25.45-11.97c-12.21,0-22.18,5.33-22.58,11.97h45.17c-.41-6.64-10.38-11.97-22.58-11.97Z"/>
      </g>
      <line class="cls-3" x1="1652.69" y1="720.58" x2="1652.69" y2="750.49"/>
      <line class="cls-3" x1="1682.8" y1="720.58" x2="1682.8" y2="750.76"/>
    </g>
    <rect x="1534.66" y="862.79" width="29.92" height="8.09"/>
    <path d="M1557.3,844.19v12.13h-14.56v-12.13h-18.58c.46,12.76,11.7,23.01,25.45,23.01s24.99-10.25,25.45-23.01h-17.77Z"/>
    <g>
      <path d="M1549.62,806.24c12.21,0,22.18,5.33,22.58,11.97h-45.17c.41-6.64,10.38-11.97,22.58-11.97Z"/>
      <path d="M1524.16,818.22c.41-7.57,11.66-13.66,25.45-13.66s25.05,6.09,25.45,13.66h.02v1.26h-50.95v-1.26h.02Zm25.45-11.97c-12.21,0-22.18,5.33-22.58,11.97h45.17c-.41-6.64-10.38-11.97-22.58-11.97Z"/>
    </g>
    <line class="cls-3" x1="1534.66" y1="817.5" x2="1534.66" y2="847.41"/>
    <line class="cls-3" x1="1564.77" y1="817.5" x2="1564.77" y2="847.69"/>
    <g>
      <rect x="1381.22" y="885.62" width="29.92" height="8.09"/>
      <path d="M1403.86,867.02v12.13h-14.56v-12.13h-18.58c.46,12.76,11.7,23.01,25.45,23.01s24.99-10.25,25.45-23.01h-17.77Z"/>
      <g>
        <path d="M1396.18,829.07c12.21,0,22.18,5.33,22.58,11.97h-45.17c.41-6.64,10.38-11.97,22.58-11.97Z"/>
        <path d="M1370.73,841.05c.41-7.57,11.66-13.66,25.45-13.66s25.05,6.09,25.45,13.66h.02v1.26h-50.95v-1.26h.02Zm25.45-11.97c-12.21,0-22.18,5.33-22.58,11.97h45.17c-.41-6.64-10.38-11.97-22.58-11.97Z"/>
      </g>
      <line class="cls-3" x1="1381.22" y1="840.33" x2="1381.22" y2="870.24"/>
      <line class="cls-3" x1="1411.33" y1="840.33" x2="1411.33" y2="870.52"/>
    </g>
    <rect x="1241.19" y="829.5" width="29.92" height="8.09"/>
    <path d="M1263.83,810.9v12.13h-14.56v-12.13h-18.58c.46,12.76,11.7,23.01,25.45,23.01s24.99-10.25,25.45-23.01h-17.77Z"/>
    <g>
      <path d="M1256.15,772.96c12.21,0,22.18,5.33,22.58,11.97h-45.17c.41-6.64,10.38-11.97,22.58-11.97Z"/>
      <path d="M1230.69,784.93c.41-7.57,11.66-13.66,25.45-13.66s25.05,6.09,25.45,13.66h.02v1.26h-50.95v-1.26h.02Zm25.45-11.97c-12.21,0-22.18,5.33-22.58,11.97h45.17c-.41-6.64-10.38-11.97-22.58-11.97Z"/>
    </g>
    <line class="cls-3" x1="1241.19" y1="784.21" x2="1241.19" y2="814.13"/>
    <line class="cls-3" x1="1271.3" y1="784.21" x2="1271.3" y2="814.4"/>
    <rect x="1145.19" y="711.5" width="29.92" height="8.09"/>
    <path d="M1167.83,692.9v12.13h-14.56v-12.13h-18.58c.46,12.76,11.7,23.01,25.45,23.01s24.99-10.25,25.45-23.01h-17.77Z"/>
    <g>
      <path d="M1160.15,654.96c12.21,0,22.18,5.33,22.58,11.97h-45.17c.41-6.64,10.38-11.97,22.58-11.97Z"/>
      <path d="M1134.69,666.93c.41-7.57,11.66-13.66,25.45-13.66s25.05,6.09,25.45,13.66h.02v1.26h-50.95v-1.26h.02Zm25.45-11.97c-12.21,0-22.18,5.33-22.58,11.97h45.17c-.41-6.64-10.38-11.97-22.58-11.97Z"/>
    </g>
    <line class="cls-3" x1="1145.19" y1="666.21" x2="1145.19" y2="696.13"/>
    <line class="cls-3" x1="1175.3" y1="666.21" x2="1175.3" y2="696.4"/>
    <rect x="1120.8" y="563.19" width="29.92" height="8.09"/>
    <path d="M1143.45,544.59v12.13h-14.56v-12.13h-18.58c.46,12.76,11.7,23.01,25.45,23.01s24.99-10.25,25.45-23.01h-17.77Z"/>
    <g>
      <path d="M1135.77,506.65c12.21,0,22.18,5.33,22.58,11.97h-45.17c.41-6.64,10.38-11.97,22.58-11.97Z"/>
      <path d="M1110.31,518.62c.41-7.57,11.66-13.66,25.45-13.66s25.05,6.09,25.45,13.66h.02v1.26h-50.95v-1.26h.02Zm25.45-11.97c-12.21,0-22.18,5.33-22.58,11.97h45.17c-.41-6.64-10.38-11.97-22.58-11.97Z"/>
    </g>
    <line class="cls-3" x1="1120.8" y1="517.9" x2="1120.8" y2="547.82"/>
    <line class="cls-3" x1="1150.92" y1="517.9" x2="1150.92" y2="548.09"/>
    <rect x="1176.48" y="418.39" width="29.92" height="8.09"/>
    <path d="M1199.12,399.79v12.13h-14.56v-12.13h-18.58c.46,12.76,11.7,23.01,25.45,23.01s24.99-10.25,25.45-23.01h-17.77Z"/>
    <g>
      <path d="M1191.44,361.85c12.21,0,22.18,5.33,22.58,11.97h-45.17c.41-6.64,10.38-11.97,22.58-11.97Z"/>
      <path d="M1165.98,373.82c.41-7.57,11.66-13.66,25.45-13.66s25.05,6.09,25.45,13.66h.02v1.26h-50.95v-1.26h.02Zm25.45-11.97c-12.21,0-22.18,5.33-22.58,11.97h45.17c-.41-6.64-10.38-11.97-22.58-11.97Z"/>
    </g>
    <line class="cls-3" x1="1176.48" y1="373.1" x2="1176.48" y2="403.02"/>
    <line class="cls-3" x1="1206.59" y1="373.1" x2="1206.59" y2="403.29"/>
    <rect x="1300.65" y="323.29" width="29.92" height="8.09"/>
    <path d="M1323.3,304.69v12.13h-14.56v-12.13h-18.58c.46,12.76,11.7,23.01,25.45,23.01s24.99-10.25,25.45-23.01h-17.77Z"/>
    <g>
      <path d="M1315.61,266.74c12.21,0,22.18,5.33,22.58,11.97h-45.17c.41-6.64,10.38-11.97,22.58-11.97Z"/>
      <path d="M1290.16,278.72c.41-7.57,11.66-13.66,25.45-13.66s25.05,6.09,25.45,13.66h.02v1.26h-50.95v-1.26h.02Zm25.45-11.97c-12.21,0-22.18,5.33-22.58,11.97h45.17c-.41-6.64-10.38-11.97-22.58-11.97Z"/>
    </g>
    <line class="cls-3" x1="1300.65" y1="278" x2="1300.65" y2="307.91"/>
    <line class="cls-3" x1="1330.76" y1="278" x2="1330.76" y2="308.19"/>
  </g>
  <g>
    <line class="cls-6" x1="1434.6" y1="538.57" x2="1281.73" y2="917.53"/>
    <line class="cls-6" x1="1426.95" y1="538.59" x2="1579.82" y2="917.56"/>
    <polygon class="cls-7" points="1631.32 918 1220.82 918 1192 956.23 1192 962 1661 962 1661 957.38 1631.32 918"/>
  </g>
  <path class="cls-4" d="M3872,708l-98.82,.87c-17.71,.16-34.77-7.17-46.47-20.47-1.98-2.25-3.6-4.44-4.71-6.41-26.95-48.05-31-190-31-190,0,0,3-82-64-90s-70,86-70,86c-57,256-195,225-195,225h-271c-18.97-2.67-40.64-7.52-64.21-20.48-37.97-20.88-69.17-52.14-90.98-89.58-37.81-64.9-83.22-177.69,31.85-211.5,34.28-10.07,71.38-6.02,101.86,12.63,103.42,63.26-11.52,199.94-11.52,199.94-76.21,102.28-150.16,109.06-171.8,108.25-2.46-.09-4.91,0-7.36,.24-36.49,3.55-331.96-3.46-365.89-5.89-3.83-.27-7.6-1.05-11.23-2.32-3.76-1.32-8.64-3.12-12.6-4.6-5.21-1.95-10.11-4.62-14.57-7.96-.72-.54-1.44-1.08-2.14-1.61-4.33-3.27-7.83-7.51-10.17-12.41-2.26-4.74-4.95-11.37-8.25-20.72-18-51-18.79-109.39-18.79-109.39-1.51-40.34,.53-73.34,.53-73.34,0,0,4.27-189.27-78.73-204.27-123-15-110.82,207.96-110.82,207.96,0,0-1.45,143.98-49.18,209.04-33.6,45.8-277,83-277,83"/>
</svg>