<?xml version="1.0" encoding="UTF-8"?>
<svg id="Layer_1" data-name="Layer 1" xmlns="http://www.w3.org/2000/svg" viewBox="0 0 598 598">
  <defs>
    <style>
      .cls-1 {
        fill: none;
        stroke: #000;
        stroke-miterlimit: 10;
        stroke-width: 4px;
      }
    </style>
  </defs>
  <path d="M299,7c39.42,0,77.66,7.72,113.66,22.94,34.77,14.71,66,35.76,92.82,62.58,26.82,26.82,47.87,58.05,62.58,92.82,15.22,35.99,22.94,74.23,22.94,113.66s-7.72,77.66-22.94,113.66c-14.71,34.77-35.76,66-62.58,92.82-26.82,26.82-58.05,47.87-92.82,62.58-35.99,15.22-74.23,22.94-113.66,22.94s-77.66-7.72-113.66-22.94c-34.77-14.71-66-35.76-92.82-62.58-26.82-26.82-47.87-58.05-62.58-92.82-15.22-35.99-22.94-74.23-22.94-113.66s7.72-77.66,22.94-113.66c14.71-34.77,35.76-66,62.58-92.82,26.82-26.82,58.05-47.87,92.82-62.58,35.99-15.22,74.23-22.94,113.66-22.94m0-7C133.87,0,0,133.87,0,299s133.87,299,299,299,299-133.87,299-299S464.13,0,299,0h0Z"/>
  <path d="M298.6,55.04c32.88,0,64.77,6.44,94.79,19.13,29,12.27,55.04,29.83,77.41,52.19,22.37,22.37,39.93,48.41,52.19,77.41,12.7,30.02,19.13,61.91,19.13,94.79s-6.44,64.77-19.13,94.79c-12.27,29-29.83,55.04-52.19,77.41-22.37,22.37-48.41,39.93-77.41,52.19-30.02,12.7-61.91,19.13-94.79,19.13s-64.77-6.44-94.79-19.13c-29-12.27-55.04-29.83-77.41-52.19-22.37-22.37-39.93-48.41-52.19-77.41-12.7-30.02-19.13-61.91-19.13-94.79s6.44-64.77,19.13-94.79c12.27-29,29.83-55.04,52.19-77.41,22.37-22.37,48.41-39.93,77.41-52.19,30.02-12.7,61.91-19.13,94.79-19.13m0-7c-138.36,0-250.53,112.17-250.53,250.53s112.17,250.53,250.53,250.53,250.53-112.17,250.53-250.53S436.97,48.04,298.6,48.04h0Z"/>
  <path d="M298.77,54.98c26.53,0,52.77,4.34,77.98,12.91,24.82,8.43,48.02,20.74,68.94,36.57,21.13,15.99,39.38,35.16,54.23,56.96,15.37,22.56,26.77,47.49,33.91,74.11,8.51,31.76,10.55,64.23,6.05,96.51-4.34,31.18-14.56,60.89-30.38,88.28-15.82,27.39-36.43,51.1-61.26,70.45-25.71,20.03-54.85,34.51-86.61,43.02-20.7,5.55-41.96,8.36-63.19,8.36-26.53,0-52.77-4.34-77.98-12.91-24.82-8.43-48.02-20.74-68.94-36.57-21.13-15.99-39.38-35.16-54.24-56.96-15.37-22.56-26.77-47.5-33.91-74.12-8.51-31.76-10.55-64.23-6.05-96.51,4.34-31.18,14.56-60.89,30.38-88.28,15.82-27.39,36.43-51.1,61.26-70.45,25.71-20.03,54.85-34.51,86.61-43.02,20.7-5.55,41.96-8.36,63.19-8.36h0m-.01-7c-21.46,0-43.28,2.78-65,8.6C100.11,92.39,20.8,229.76,56.61,363.41c29.99,111.93,131.21,185.75,241.83,185.75,21.46,0,43.28-2.78,65-8.6,133.65-35.81,212.96-173.18,177.15-306.83-29.99-111.93-131.21-185.75-241.83-185.75h0Z"/>
  <line class="cls-1" x1="113.1" y1="64.3" x2="484.91" y2="532.86"/>
  <line class="cls-1" x1="20.82" y1="188.44" x2="577.09" y2="408.32"/>
  <line class="cls-1" x1="2.97" y1="342.09" x2="594.66" y2="254.37"/>
  <line class="cls-1" x1="64.33" y1="484.07" x2="532.89" y2="112.26"/>
  <path d="M298.96,202.97c43.01,0,80.83,29.05,91.97,70.65,6.59,24.58,3.21,50.26-9.52,72.3-12.73,22.04-33.27,37.81-57.86,44.4-8.1,2.17-16.42,3.27-24.73,3.27-43.01,0-80.83-29.05-91.98-70.65-13.6-50.75,16.63-103.1,67.38-116.7,8.1-2.17,16.42-3.27,24.73-3.27h0m0-6c-8.68,0-17.5,1.12-26.28,3.48-54.03,14.48-86.1,70.02-71.62,124.05,12.13,45.25,53.05,75.1,97.77,75.1,8.68,0,17.5-1.12,26.28-3.48,54.03-14.48,86.1-70.02,71.62-124.05-12.13-45.25-53.05-75.1-97.77-75.1h0Z"/>
  <polyline class="cls-1" points="472 64.3 336.26 204.14 333.08 1.74"/>
  <polyline class="cls-1" points="64.33 124.41 235.84 218.98 180.05 24.27 417.92 573.09 361.79 377.7 539.2 476.65"/>
  <polyline class="cls-1" points="573.13 179.25 399.07 283.36 596.01 332.5 1.78 264.09"/>
  <polyline class="cls-1" points="596.01 332.5 389.87 333.65 539.2 476.65 58.78 120.29"/>
  <line class="cls-1" x1="284.91" y1="204.14" x2="180.05" y2="24.27"/>
  <polyline class="cls-1" points="24.3 417.12 223.21 358 120.33 538.39 476.69 57.97 377.22 238.07 573.13 179.25 24.3 417.12 198.68 313.07 1.78 264.09"/>
  <line class="cls-1" x1="255.08" y1="2.93" x2="342.8" y2="594.62"/>
  <line class="cls-1" x1="188.85" y1="577.06" x2="408.73" y2="20.78"/>
  <polyline class="cls-1" points="264.67 595.97 333.08 1.74 284.02 198.09"/>
  <polyline class="cls-1" points="264.67 595.97 264.65 590.32 263.76 387.56 120.33 538.39"/>
  <polyline class="cls-1" points="417.92 573.09 313.27 395.4 264.65 590.32"/>
  <polyline class="cls-1" points="64.33 124.41 204.67 261.11 8.45 264.63"/>
</svg>