<?xml version="1.0" encoding="UTF-8"?>
<svg id="Layer_1" data-name="Layer 1" xmlns="http://www.w3.org/2000/svg" viewBox="0 0 265 410">
  <defs>
    <style>
      .cls-1, .cls-2, .cls-3, .cls-4 {
        stroke: #000;
        stroke-miterlimit: 10;
      }

      .cls-1, .cls-2, .cls-4 {
        fill: #fff;
      }

      .cls-1, .cls-3 {
        stroke-width: 5px;
      }

      .cls-2 {
        stroke-width: 4px;
      }

      .cls-4 {
        stroke-width: 6px;
      }
    </style>
  </defs>
  <path class="cls-2" d="M177.17,25.53s10.09-14.97-.1-18.62q-10.19-3.65-19.9,6.62s-5.67-13.43-14.41-3.75c-8.74,9.68-2.53,12.5-2.53,12.5l6.05,3.1s-6.66-2.11-9,6.13,8.26,10.23,8.26,10.23c0,0,11.18-.27,9.34-4.04s2.24,14.23,10.12,8.9,4.58-13.63,4.58-13.63c0,0,11.19,7.62,10.87,2.74s-3.28-10.18-3.28-10.18Z"/>
  <path class="cls-2" d="M216.66,25.38s13,31-21,15c0,0-12.51,14.28-19.75-6.86,0,0-.25-17.14,12.75-11.14,0,0-13-15,7-15,0,0,9,0,9,8,0,0,5.18-13,10.59-8,10.41,1,1.41,18,1.41,18Z"/>
  <path class="cls-2" d="M232.81,77.22s17.02,6.04,18.01-4.74q.99-10.78-11.37-17.62s11.59-8.84,.04-14.89c-11.55-6.05-12.74,.66-12.74,.66l-1.5,6.64s.38-6.98-8.18-7.18c-8.56-.21-7.85,10.55-7.85,10.55,0,0,3.05,10.76,6.24,8.04s-13.23,5.71-6.1,12.01c7.13,6.3,14.35,1.04,14.35,1.04,0,0-4.59,12.74,.06,11.21s9.04-5.71,9.04-5.71Z"/>
  <path class="cls-2" d="M108.64,58.91s-18.04-.71-14.96-11.09,3.09-10.38,17.11-12.13c0,0-7.48-12.51,5.49-13.84s11.58,5.35,11.58,5.35l-1.08,6.72s2.23-6.62,10.26-3.63c8.03,2.99,3.37,12.71,3.37,12.71,0,0-6.83,8.86-8.78,5.14-1.96-3.72,10.16,10.22,1.19,13.42-8.96,3.2-13.71-4.37-13.71-4.37,0,0-.47,13.54-4.22,10.38-3.75-3.15-6.27-8.66-6.27-8.66Z"/>
  <path class="cls-2" d="M159.36,38.02s17.87-2.59,16.73,8.18q-1.14,10.77-14.61,15.04s9.63,10.94-2.88,14.6c-12.51,3.66-12.36-3.15-12.36-3.15l-.17-6.8s-.99,6.92-9.43,5.44-5.63-11.88-5.63-11.88c0,0,5.1-9.95,7.7-6.65s-11.85-8.2-3.62-12.98c8.23-4.78,14.27,1.79,14.27,1.79,0,0-2.01-13.39,2.25-10.98s7.74,7.37,7.74,7.37Z"/>
  <path class="cls-2" d="M206.37,62.37s-.52,33.61-25.25,5.32c0,0-17.19,8.07-15.35-14.2,0,0,6.65-15.8,16.15-5.09,0,0-5.89-18.95,12.43-10.93,0,0,8.24,3.61,5.04,10.94,0,0,9.96-9.83,12.91-3.08,9.14,5.09-5.92,17.06-5.92,17.06Z"/>
  <path class="cls-2" d="M101.32,57.21s6.57,16.82-4.17,18.15-10.75,1.33-17.96-10.82c0,0-8.47,11.86-14.88,.51s.26-12.75,.26-12.75l6.59-1.7s-6.96,.6-7.44-7.95c-.48-8.55,10.29-8.18,10.29-8.18,0,0,10.85,2.71,8.23,5.99s5.3-13.4,11.82-6.47c6.52,6.93,1.49,14.31,1.49,14.31,0,0,12.59-4.99,11.2-.29s-5.43,9.21-5.43,9.21Z"/>
  <polyline class="cls-4" points="147.8 404.3 147.8 134.9 260.22 79.32 260.22 356.62 147.8 404.3 4.78 404.3 4.78 134.9 147.8 134.9"/>
  <path class="cls-1" d="M4.78,404.3H31.17V123.97c-13.51-29.53-26.39,0-26.39,0V404.3Z"/>
  <path class="cls-3" d="M30.8,404.21h26.39V123.87c-13.51-29.53-26.39,0-26.39,0V404.21Z"/>
  <path class="cls-1" d="M57.54,404.63h26.39V124.29c-13.51-29.53-26.39,0-26.39,0V404.63Z"/>
  <path class="cls-3" d="M84.15,404.63h26.39V124.29c-13.51-29.53-26.39,0-26.39,0V404.63Z"/>
  <path class="cls-1" d="M110.54,404.76h26.39V124.42c-13.51-29.53-26.39,0-26.39,0V404.76Z"/>
  <path class="cls-3" d="M136.79,404.22h26.39V123.88c-13.51-29.53-26.39,0-26.39,0V404.22Z"/>
  <path class="cls-1" d="M167.06,403.38l17.17-6.49,.32-278.83c-6.98-31.73-18.97,8.6-18.97,8.6l1.47,276.73Z"/>
  <path class="cls-3" d="M186.19,396.15l17.17-6.49,.32-278.83c-6.98-31.73-18.97,8.6-18.97,8.6l1.47,276.73Z"/>
  <path class="cls-1" d="M205.27,388.93l17.17-6.49,.32-278.83c-6.98-31.73-18.97,8.6-18.97,8.6l1.47,276.73Z"/>
  <path class="cls-3" d="M224.04,381.06l17.17-6.49,.32-278.83c-6.98-31.73-18.97,8.6-18.97,8.6l1.47,276.73Z"/>
  <path class="cls-1" d="M242.79,373.9l17.17-6.55,.32-281.31c-6.98-32.02-18.97,8.67-18.97,8.67l1.47,279.19Z"/>
  <path class="cls-2" d="M203.78,83.26s-13,31,21,15c0,0,12.51,14.28,19.75-6.86,0,0,.25-17.14-12.75-11.14,0,0,13-15-7-15,0,0-9,0-9,8,0,0-5.18-13-10.59-8-10.41,1-1.41,18-1.41,18Z"/>
  <path class="cls-2" d="M58.74,98.29s13,31-21,15c0,0-12.51,14.28-19.75-6.86,0,0-.25-17.14,12.75-11.14,0,0-13-15,7-15,0,0,9,0,9,8,0,0,5.18-13,10.59-8,10.41,1,1.41,18,1.41,18Z"/>
  <path class="cls-2" d="M38.78,61.8s-2.15-17.93,8.58-16.52q10.74,1.4,14.68,14.97s11.17-9.37,14.53,3.23-3.45,12.28-3.45,12.28h-6.8s6.89,1.16,5.21,9.56c-1.68,8.4-12.01,5.34-12.01,5.34,0,0-9.83-5.34-6.47-7.86s-8.48,11.65-13.06,3.3,2.14-14.22,2.14-14.22c0,0-13.44,1.68-10.92-2.52s7.56-7.56,7.56-7.56Z"/>
  <path class="cls-2" d="M55.7,97.21s9.8,32.16,25.74-1.87c0,0,18.75,3,10.82-17.9,0,0-10.76-13.35-16.93-.42,0,0,.42-19.84-14.97-7.07,0,0-6.92,5.75-1.81,11.9,0,0-12.29-6.7-13.26,.61-7.37,7.42,10.41,14.75,10.41,14.75Z"/>
  <path class="cls-2" d="M199.07,91.53s6.57,16.82-4.17,18.15q-10.75,1.33-17.96-10.82s-8.47,11.86-14.88,.51c-6.41-11.36,.26-12.75,.26-12.75l6.59-1.7s-6.96,.6-7.44-7.95c-.48-8.55,10.29-8.18,10.29-8.18,0,0,10.85,2.71,8.23,5.99s5.3-13.4,11.82-6.47c6.52,6.93,1.49,14.31,1.49,14.31,0,0,12.59-4.99,11.2-.29s-5.43,9.21-5.43,9.21Z"/>
  <path class="cls-2" d="M155.96,89.8s2.15-17.93-8.58-16.52q-10.74,1.4-14.68,14.97s-11.17-9.37-14.53,3.23,3.45,12.28,3.45,12.28h6.8s-6.89,1.16-5.21,9.56c1.68,8.4,12.01,5.34,12.01,5.34,0,0,9.83-5.34,6.47-7.86s8.48,11.65,13.06,3.3-2.14-14.22-2.14-14.22c0,0,13.44,1.68,10.92-2.52s-7.56-7.56-7.56-7.56Z"/>
  <path class="cls-2" d="M119.15,91.82s-14.8,10.34-18.62,.21-3.81-10.13,6.3-20c0,0-13.52-5.45-3.99-14.34,9.53-8.89,12.46-2.74,12.46-2.74l3.2,6s-2.22-6.62,5.98-9.09c8.2-2.47,10.36,8.09,10.36,8.09,0,0-.09,11.18-3.89,9.4s14.27,2,9.06,9.97-13.56,4.81-13.56,4.81c0,0,7.81,11.07,2.92,10.82s-10.23-3.11-10.23-3.11Z"/>
  <path class="cls-2" d="M78.77,97.98s-13,31,21,15c0,0,12.51,14.28,19.75-6.86,0,0,.25-17.14-12.75-11.14,0,0,13-15-7-15,0,0-9,0-9,8,0,0-5.18-13-10.59-8-10.41,1-1.41,18-1.41,18Z"/>
  <path class="cls-2" d="M176.14,105.91s-10.89,31.8-25.66-2.75c0,0-18.84,2.36-10.2-18.25,0,0,11.21-12.97,16.93,.15,0,0,.26-19.85,15.2-6.56,0,0,6.72,5.98,1.41,11.96,0,0,12.51-6.27,13.23,1.06,7.11,7.67-10.91,14.39-10.91,14.39Z"/>
</svg>