<?xml version="1.0" encoding="UTF-8"?>
<svg id="Layer_1" data-name="Layer 1" xmlns="http://www.w3.org/2000/svg" viewBox="0 0 50 51">
  <defs>
    <style>
      .cls-1 {
        fill: #fff;
        stroke: #000;
        stroke-miterlimit: 10;
        stroke-width: 4px;
      }
    </style>
  </defs>
  <path class="cls-1" d="M31.01,9.88s17.87-2.59,16.73,8.18q-1.14,10.77-14.61,15.04s9.63,10.94-2.88,14.6c-12.51,3.66-12.36-3.15-12.36-3.15l-.17-6.8s-.99,6.92-9.43,5.44C-.15,41.72,2.66,31.32,2.66,31.32c0,0,5.1-9.95,7.7-6.65,2.6,3.3-11.85-8.2-3.62-12.98,8.23-4.78,14.27,1.79,14.27,1.79,0,0-2.01-13.39,2.25-10.98,4.26,2.42,7.74,7.37,7.74,7.37Z"/>
</svg>