<?xml version="1.0" encoding="UTF-8"?>
<svg id="Layer_1" data-name="Layer 1" xmlns="http://www.w3.org/2000/svg" viewBox="0 0 1920 1080">
  <defs>
    <style>
      .cls-1 {
        stroke-width: 3px;
      }

      .cls-1, .cls-2 {
        fill: none;
      }

      .cls-1, .cls-2, .cls-3 {
        stroke: #000;
        stroke-miterlimit: 10;
      }

      .cls-2, .cls-3 {
        stroke-width: 10px;
      }
    </style>
  </defs>
  <path class="cls-2" d="M1932,708l-98.82,.87c-17.71,.16-34.77-7.17-46.47-20.47-1.98-2.25-3.6-4.44-4.71-6.41-26.95-48.05-31-190-31-190,0,0,3-82-64-90s-70,86-70,86c-57,256-195,225-195,225h-271c-18.97-2.67-40.64-7.52-64.21-20.48-37.97-20.88-69.17-52.14-90.98-89.58-37.81-64.9-83.22-177.69,31.85-211.5,34.28-10.07,71.38-6.02,101.86,12.63,103.42,63.26-11.52,199.94-11.52,199.94-76.21,102.28-150.16,109.06-171.8,108.25-2.46-.09-4.91,0-7.36,.24-36.49,3.55-331.96-3.46-365.89-5.89-3.83-.27-7.6-1.05-11.23-2.32-3.76-1.32-8.64-3.12-12.6-4.6-5.21-1.95-10.11-4.62-14.57-7.96-.72-.54-1.44-1.08-2.14-1.61-4.33-3.27-7.83-7.51-10.17-12.41-2.26-4.74-4.95-11.37-8.25-20.72-18-51-18.79-109.39-18.79-109.39-1.51-40.34,.53-73.34,.53-73.34,0,0,4.27-189.27-78.73-204.27-123-15-110.82,207.96-110.82,207.96,0,0-1.45,143.98-49.18,209.04-33.6,45.8-277,83-277,83"/>
  <path class="cls-1" d="M1856.5,691.5c76-3,63.5,1.12,63.5,1.12"/>
  <path class="cls-1" d="M1787.53,642.48s.77,3.91,1.77,8.75c1.81,8.73,9.81,24.26,17.2,29.26,10.73,7.27,0,10,50,11"/>
  <line class="cls-1" x1="23.49" y1="762.58" x2="19.69" y2="735.03"/>
  <line class="cls-1" x1="46.93" y1="758.16" x2="42.21" y2="731.06"/>
  <line class="cls-1" x1="66.5" y1="750.5" x2="60.6" y2="727.62"/>
  <line class="cls-1" x1="84.28" y1="750.5" x2="77.87" y2="724.23"/>
  <line class="cls-1" x1="103.02" y1="744.61" x2="95.86" y2="720.5"/>
  <line class="cls-1" x1="118.33" y1="739.06" x2="112.2" y2="716.93"/>
  <line class="cls-1" x1="134.08" y1="735.03" x2="128.64" y2="713.11"/>
  <line class="cls-1" x1="152.9" y1="732.55" x2="145.53" y2="708.92"/>
  <line class="cls-1" x1="171.27" y1="727.62" x2="163.47" y2="704.08"/>
  <line class="cls-1" x1="188.78" y1="720.5" x2="180.72" y2="698.9"/>
  <line class="cls-1" x1="208.03" y1="713.11" x2="198.76" y2="692.67"/>
  <line class="cls-1" x1="227.86" y1="707.61" x2="215.69" y2="685.46"/>
  <line class="cls-1" x1="246.94" y1="696.53" x2="230.65" y2="676.16"/>
  <line class="cls-1" x1="262.55" y1="678.75" x2="242.59" y2="661.22"/>
  <line class="cls-1" x1="273.67" y1="657.43" x2="250.95" y2="643.99"/>
  <line class="cls-1" x1="282.66" y1="633.77" x2="258.06" y2="625.93"/>
  <line class="cls-1" x1="289.01" y1="611.86" x2="265.22" y2="604.86"/>
  <line class="cls-1" x1="293.54" y1="592.27" x2="270.89" y2="586.17"/>
  <line class="cls-1" x1="297.62" y1="570.23" x2="276.19" y2="566.98"/>
  <line class="cls-1" x1="300.9" y1="547.65" x2="282.66" y2="545.5"/>
  <line class="cls-1" x1="300.9" y1="523.67" x2="282.96" y2="523.67"/>
  <line class="cls-1" x1="305.32" y1="499.58" x2="283.18" y2="499.58"/>
  <line class="cls-1" x1="306.18" y1="477.96" x2="283.97" y2="476.18"/>
  <line class="cls-1" x1="305.91" y1="454.4" x2="285.24" y2="454.4"/>
  <line class="cls-1" x1="305.32" y1="435.95" x2="286.91" y2="434.32"/>
  <line class="cls-1" x1="307.98" y1="416.32" x2="289.29" y2="412.89"/>
  <line class="cls-1" x1="310.78" y1="393.29" x2="293.54" y2="389.27"/>
  <line class="cls-1" x1="314.51" y1="372.67" x2="297.02" y2="366.65"/>
  <line class="cls-1" x1="319.28" y1="353.56" x2="302.16" y2="345.44"/>
  <line class="cls-1" x1="326.01" y1="333.76" x2="308.51" y2="324.83"/>
  <line class="cls-1" x1="333.37" y1="317.69" x2="316.09" y2="305.65"/>
  <line class="cls-1" x1="343.41" y1="301.65" x2="324.73" y2="288.83"/>
  <line class="cls-1" x1="353.58" y1="290.04" x2="337.26" y2="271.11"/>
  <line class="cls-1" x1="366.86" y1="279.72" x2="353.58" y2="256.33"/>
  <line class="cls-1" x1="382.2" y1="271.11" x2="374.56" y2="246.9"/>
  <line class="cls-1" x1="401.71" y1="269.28" x2="399.74" y2="245"/>
  <line class="cls-1" x1="421.87" y1="271.11" x2="427.28" y2="246.25"/>
  <line class="cls-1" x1="439.87" y1="279.72" x2="448.52" y2="255.03"/>
  <line class="cls-1" x1="453.48" y1="292.46" x2="465.97" y2="269.28"/>
  <line class="cls-1" x1="462.8" y1="305.65" x2="479.75" y2="286.97"/>
  <line class="cls-1" x1="471.27" y1="322.24" x2="491.04" y2="308.07"/>
  <line class="cls-1" x1="479.75" y1="340.12" x2="499.15" y2="329.29"/>
  <line class="cls-1" x1="482.82" y1="356.65" x2="505.47" y2="352.08"/>
  <line class="cls-1" x1="489.45" y1="378.03" x2="509.75" y2="375.54"/>
  <line class="cls-1" x1="494.14" y1="401.16" x2="511.81" y2="401.16"/>
  <line class="cls-1" x1="494.14" y1="426.76" x2="511.81" y2="426.76"/>
  <line class="cls-1" x1="495.41" y1="451.39" x2="511.81" y2="451.39"/>
  <line class="cls-1" x1="495.73" y1="474.27" x2="513.53" y2="474.27"/>
  <line class="cls-1" x1="495.73" y1="496.67" x2="514.57" y2="496.67"/>
  <line class="cls-1" x1="494.65" y1="519.64" x2="514.57" y2="519.64"/>
  <line class="cls-1" x1="494.14" y1="542.45" x2="517.54" y2="542.45"/>
  <line class="cls-1" x1="499.6" y1="566.98" x2="519.53" y2="565.03"/>
  <line class="cls-1" x1="500.5" y1="593.5" x2="522.08" y2="588.03"/>
  <line class="cls-1" x1="502.19" y1="611.86" x2="524.97" y2="608.36"/>
  <line class="cls-1" x1="509.56" y1="635.4" x2="529.09" y2="629.41"/>
  <line class="cls-1" x1="514" y1="657" x2="534.74" y2="647.17"/>
  <line class="cls-1" x1="527.5" y1="681.5" x2="545.9" y2="663.48"/>
  <line class="cls-1" x1="549.13" y1="699.69" x2="562.21" y2="677.07"/>
  <line class="cls-1" x1="579.41" y1="684.18" x2="572.96" y2="706.61"/>
  <line class="cls-1" x1="601.54" y1="706.61" x2="601.54" y2="688.38"/>
  <line class="cls-1" x1="625.97" y1="706.61" x2="625.97" y2="687.56"/>
  <line class="cls-1" x1="649.5" y1="711.5" x2="649.5" y2="687.84"/>
  <line class="cls-1" x1="675.88" y1="710.03" x2="675.88" y2="687.84"/>
  <line class="cls-1" x1="702.52" y1="710.03" x2="702.52" y2="688.47"/>
  <line class="cls-1" x1="724.64" y1="710.03" x2="724.64" y2="688.73"/>
  <line class="cls-1" x1="745.54" y1="710.03" x2="745.54" y2="688.98"/>
  <line class="cls-1" x1="764.15" y1="710.03" x2="764.15" y2="688.47"/>
  <line class="cls-1" x1="786.02" y1="711.5" x2="786.02" y2="689.46"/>
  <line class="cls-1" x1="806.92" y1="689.7" x2="806.92" y2="710.03"/>
  <line class="cls-1" x1="826.18" y1="710.03" x2="826.18" y2="689.93"/>
  <line class="cls-1" x1="845.44" y1="710.03" x2="845.44" y2="690.16"/>
  <line class="cls-1" x1="866.66" y1="710.03" x2="866.66" y2="690.41"/>
  <line class="cls-1" x1="886.25" y1="710.03" x2="886.25" y2="690.16"/>
  <line class="cls-1" x1="908.64" y1="710.03" x2="908.64" y2="690.91"/>
  <line class="cls-1" x1="952.5" y1="708.5" x2="950.95" y2="691.51"/>
  <line class="cls-1" x1="975.5" y1="704.5" x2="972.82" y2="690.91"/>
  <line class="cls-1" x1="1001.32" y1="697.7" x2="994.44" y2="682.32"/>
  <line class="cls-1" x1="1018.59" y1="689.7" x2="1010.1" y2="675.18"/>
  <line class="cls-1" x1="1037.5" y1="679.5" x2="1026.66" y2="665.71"/>
  <line class="cls-1" x1="1077.38" y1="650.43" x2="1064.67" y2="635.75"/>
  <line class="cls-1" x1="1089.84" y1="635.75" x2="1077.38" y2="622.76"/>
  <line class="cls-1" x1="1104.93" y1="620.65" x2="1089.84" y2="608.28"/>
  <line class="cls-1" x1="1118" y1="604" x2="1102.83" y2="591.12"/>
  <line class="cls-1" x1="1132.89" y1="583.82" x2="1115.43" y2="572.09"/>
  <line class="cls-1" x1="1143.86" y1="566.41" x2="1125.17" y2="555.51"/>
  <line class="cls-1" x1="1154.25" y1="547" x2="1135" y2="536.78"/>
  <line class="cls-1" x1="1161.98" y1="529.24" x2="1142.29" y2="521.4"/>
  <line class="cls-1" x1="1166.5" y1="509.5" x2="1149.64" y2="503.68"/>
  <line class="cls-1" x1="1171.92" y1="490.64" x2="1152.64" y2="487.25"/>
  <line class="cls-1" x1="1170.5" y1="470.5" x2="1152.64" y2="471.68"/>
  <line class="cls-1" x1="1168.14" y1="449.47" x2="1148.1" y2="459.23"/>
  <line class="cls-1" x1="1154.25" y1="430.76" x2="1139" y2="443.12"/>
  <line class="cls-1" x1="1139" y1="411.56" x2="1127.26" y2="431.21"/>
  <line class="cls-1" x1="1121.6" y1="399.62" x2="1111.97" y2="420.35"/>
  <line class="cls-1" x1="1102.5" y1="394.5" x2="1095.17" y2="411.56"/>
  <line class="cls-1" x1="1081.5" y1="390.5" x2="1079.39" y2="407.5"/>
  <line class="cls-1" x1="1062.18" y1="390.5" x2="1062.18" y2="407.5"/>
  <line class="cls-1" x1="1040.91" y1="390.5" x2="1043.8" y2="408.83"/>
  <line class="cls-1" x1="1018.24" y1="394.5" x2="1024.87" y2="413.16"/>
  <line class="cls-1" x1="998.36" y1="403.83" x2="1008.45" y2="421.38"/>
  <line class="cls-1" x1="982.5" y1="418.5" x2="995.89" y2="432.91"/>
  <line class="cls-1" x1="969.5" y1="434.5" x2="986.6" y2="446.39"/>
  <line class="cls-1" x1="961.5" y1="452.5" x2="981.12" y2="460.45"/>
  <line class="cls-1" x1="958.5" y1="471.5" x2="978.05" y2="476.01"/>
  <line class="cls-1" x1="977.86" y1="493.1" x2="954.93" y2="493.1"/>
  <line class="cls-1" x1="980.28" y1="511.2" x2="961.5" y2="512.97"/>
  <line class="cls-1" x1="983.48" y1="525.09" x2="965.5" y2="531.5"/>
  <line class="cls-1" x1="989.14" y1="544.7" x2="974.49" y2="551.92"/>
  <line class="cls-1" x1="995.96" y1="563.5" x2="981.82" y2="572.09"/>
  <line class="cls-1" x1="1005.09" y1="583.82" x2="990.81" y2="594.14"/>
  <line class="cls-1" x1="1014.34" y1="600.6" x2="1001.18" y2="611.73"/>
  <line class="cls-1" x1="1023.45" y1="614.47" x2="1013.37" y2="622.76"/>
  <line class="cls-1" x1="1032.08" y1="625.73" x2="1021.5" y2="634.5"/>
  <line class="cls-1" x1="1042.29" y1="637.15" x2="1032.08" y2="646.04"/>
  <line class="cls-1" x1="1071.02" y1="683" x2="1081.5" y2="668.5"/>
  <line class="cls-1" x1="1086.79" y1="692.52" x2="1094.59" y2="673.94"/>
  <line class="cls-1" x1="1102.83" y1="700.01" x2="1109.61" y2="679.79"/>
  <line class="cls-1" x1="1122.5" y1="703.5" x2="1125.93" y2="686.57"/>
  <line class="cls-1" x1="1144.5" y1="710.5" x2="1146.1" y2="690.93"/>
  <line class="cls-1" x1="1168.17" y1="710.5" x2="1168.17" y2="692.52"/>
  <line class="cls-1" x1="1191.5" y1="711.5" x2="1191.5" y2="692.35"/>
  <line class="cls-1" x1="928.5" y1="691.14" x2="928.5" y2="711.5"/>
  <line class="cls-1" x1="1215.85" y1="710.5" x2="1215.85" y2="692.23"/>
  <line class="cls-1" x1="1243.81" y1="713" x2="1243.81" y2="692.1"/>
  <line class="cls-1" x1="1273.91" y1="711.5" x2="1273.91" y2="692.1"/>
  <line class="cls-1" x1="1304.53" y1="713" x2="1304.53" y2="692.52"/>
  <line class="cls-1" x1="1330.68" y1="713" x2="1330.68" y2="692.52"/>
  <line class="cls-1" x1="1354.36" y1="710.5" x2="1354.36" y2="692.52"/>
  <line class="cls-1" x1="1378.47" y1="711.5" x2="1378.47" y2="692.52"/>
  <line class="cls-1" x1="1405.22" y1="711.5" x2="1405.22" y2="690.93"/>
  <line class="cls-1" x1="1436.42" y1="713" x2="1436.42" y2="692.52"/>
  <line class="cls-1" x1="1464.34" y1="710.5" x2="1458.48" y2="688.31"/>
  <line class="cls-1" x1="1492.5" y1="696.5" x2="1482.25" y2="680.25"/>
  <line class="cls-1" x1="1518.27" y1="682.46" x2="1503.83" y2="667.65"/>
  <line class="cls-1" x1="1538.35" y1="663.24" x2="1523.12" y2="649.9"/>
  <line class="cls-1" x1="1554.67" y1="642.81" x2="1538.35" y2="628.22"/>
  <line class="cls-1" x1="1569.02" y1="620.31" x2="1550.97" y2="605.9"/>
  <line class="cls-1" x1="1584.57" y1="589.57" x2="1564.82" y2="579.4"/>
  <line class="cls-1" x1="1597.48" y1="557.09" x2="1578.5" y2="550.22"/>
  <line class="cls-1" x1="1604.72" y1="535.01" x2="1587.99" y2="526.85"/>
  <line class="cls-1" x1="1612.14" y1="508.38" x2="1596.36" y2="503.68"/>
  <line class="cls-1" x1="1617" y1="488" x2="1600.9" y2="480.74"/>
  <line class="cls-1" x1="1620.25" y1="463.98" x2="1604.72" y2="455.47"/>
  <line class="cls-1" x1="1628.35" y1="442.58" x2="1612.14" y2="430.35"/>
  <line class="cls-1" x1="1638.43" y1="421.55" x2="1623.38" y2="408.65"/>
  <line class="cls-1" x1="1654.26" y1="407.74" x2="1643.52" y2="389.17"/>
  <line class="cls-1" x1="1675.63" y1="398.45" x2="1675.63" y2="382.12"/>
  <line class="cls-1" x1="1695.5" y1="401.5" x2="1700.01" y2="382.4"/>
  <line class="cls-1" x1="1712.91" y1="410.21" x2="1724.88" y2="391.95"/>
  <line class="cls-1" x1="1727.35" y1="421.55" x2="1743.38" y2="408.65"/>
  <line class="cls-1" x1="1739.58" y1="436.46" x2="1755.44" y2="427.22"/>
  <line class="cls-1" x1="1747.51" y1="455.47" x2="1764.13" y2="447.77"/>
  <line class="cls-1" x1="1749.65" y1="472.74" x2="1769.67" y2="468.81"/>
  <line class="cls-1" x1="1751" y1="492" x2="1772.4" y2="490.47"/>
  <line class="cls-1" x1="1751.7" y1="508.38" x2="1772.4" y2="508.38"/>
  <line class="cls-1" x1="1752.68" y1="525.05" x2="1773.09" y2="525.05"/>
  <line class="cls-1" x1="1754.13" y1="544.77" x2="1774.29" y2="544.77"/>
  <line class="cls-1" x1="1755.96" y1="564.81" x2="1775.92" y2="564.81"/>
  <line class="cls-1" x1="1758.17" y1="584.49" x2="1777.92" y2="584.49"/>
  <line class="cls-1" x1="1762.05" y1="605.9" x2="1780.26" y2="603.7"/>
  <line class="cls-1" x1="1765.94" y1="625.71" x2="1783.29" y2="623.75"/>
  <path class="cls-1" d="M1773.09,645.1l14.44-2.62c-6.21-17.19-16.03-101.98-15.13-152.01-1.03-16.54-4.4-32.89-10.32-48.37-27.89-72.89-82.58-59.6-82.58-59.6-71-9-78,94-78,94-7,56-55.22,138.8-68.68,160.99-2.73,4.5-5.99,8.67-9.7,12.4-13.4,13.47-17.68,17.72-32.21,25.92-18.25,10.3-38.89,15.62-59.85,15.42l-272.56,1.27c-125.84-11.87-169.11-134.86-178.76-183.97-4.21-21.44-2.33-48.83,9.76-67.03,13.12-19.75,31.1-34,76-34,30.01,0,47.95,12.83,61.76,23.71,23.57,18.58,31.94,50.64,20.25,78.28-74,175.01-187.5,182.02-187.5,182.02l-339.5-4.01c-50,3-68-15-79.2-29.67-1.07-1.86-2.3-3.61-3.57-5.35-19.66-26.86-25.7-186.58-25.8-243.69-.03-19.09-2.11-38.13-6.47-56.72-24.54-104.57-80.7-107.77-92.46-107.26-2.44,.11-4.89,.18-7.33,.18h-15.68c-98.45,.83-106.99,202.28-107.04,274.32,0,6.04,.13,12.17-.46,18.18-.7,7.22-.79,7.22-2.09,12.71-6.95,29.26-24.91,94.29-42.97,119.16-.85,1.17-2.22,1.83-3.1,2.98C208.52,706.15,0,738.26,0,738.26l4.13,24.32"/>
  <line class="cls-1" x1="1777.92" y1="666.03" x2="1791.35" y2="657.87"/>
  <line class="cls-1" x1="1787.53" y1="685.12" x2="1799.75" y2="673.45"/>
  <line class="cls-1" x1="1807.5" y1="701.5" x2="1812.85" y2="686.13"/>
  <line class="cls-1" x1="1830.5" y1="706.5" x2="1830.5" y2="691.52"/>
  <line class="cls-1" x1="1852.81" y1="706.5" x2="1852.81" y2="692.62"/>
  <line class="cls-1" x1="1870.97" y1="706.5" x2="1870.97" y2="691.52"/>
  <line class="cls-1" x1="1892.22" y1="708.35" x2="1892.22" y2="690.47"/>
  <line class="cls-1" x1="1910.5" y1="704.5" x2="1910.5" y2="690.56"/>
  <path class="cls-2" d="M658,811l-73.94-104.39-80.06,91.39-95.76-527.53c-.05-.31-.49-.32-.56-.02l-106.68,527.55-120.28-70.38-52.08,78.62-54.65-53.55"/>
  <path class="cls-2" d="M814.67,712.81l-76.67,98.19,76.67-98.19Z"/>
  <polyline class="cls-2" points="894 826 814.67 712.81 986.6 710.5 1063 826 1135 712.81"/>
  <rect class="cls-3" y="803" width="1932" height="25"/>
  <line class="cls-2" x1="1546.51" y1="653.63" x2="1646" y2="807"/>
  <polyline class="cls-2" points="1777 671 1720.54 807 1679 807 1682.66 402"/>
  <polyline class="cls-2" points="1320 807 1391.68 713 1458.48 803"/>
</svg>