<?xml version="1.0" encoding="UTF-8"?>
<svg id="Layer_1" data-name="Layer 1" xmlns="http://www.w3.org/2000/svg" viewBox="0 0 55 71">
  <defs>
    <style>
      .cls-1 {
        fill: none;
        stroke: #000;
        stroke-miterlimit: 10;
        stroke-width: 5px;
      }
    </style>
  </defs>
  <rect x="10.51" y="58.58" width="29.92" height="8.09"/>
  <path d="M33.16,39.98v12.13h-14.56v-12.13H.02c.46,12.76,11.7,23.01,25.45,23.01s24.99-10.25,25.45-23.01h-17.77Z"/>
  <g>
    <path d="M25.47,2.04c12.21,0,22.18,5.33,22.58,11.97H2.89C3.3,7.38,13.27,2.04,25.47,2.04Z"/>
    <path d="M.02,14.02C.42,6.45,11.68,.36,25.47,.36s25.05,6.09,25.45,13.66h.02v1.26H0v-1.26H.02ZM25.47,2.04C13.27,2.04,3.3,7.38,2.89,14.02H48.06c-.41-6.64-10.38-11.97-22.58-11.97Z"/>
  </g>
  <line class="cls-1" x1="10.51" y1="13.3" x2="10.51" y2="43.21"/>
  <line class="cls-1" x1="40.62" y1="13.3" x2="40.62" y2="43.48"/>
</svg>